<svg xmlns="http://www.w3.org/2000/svg" viewBox="0 0 96 96" role="img" aria-labelledby="markTitle markDesc">
  <title id="markTitle">Faith Frontier header logo</title>
  <desc id="markDesc">Faith Frontier crest mark for header use.</desc>
  <g id="crest">
    <circle cx="48" cy="48" r="42" stroke="#d8b061" stroke-width="2.4" fill="none" />
    <circle cx="48" cy="48" r="32" stroke="#0f766e" stroke-width="2.4" fill="none" stroke-dasharray="4 6" stroke-linecap="round" />
    <path d="M24 30 Q48 12 72 30" stroke="#d8b061" stroke-width="1.8" fill="none" />
    <path d="M18 52 Q48 64 78 52" stroke="#059669" stroke-width="2" fill="none" />
    <path d="M16 64 Q48 78 80 64" stroke="#0f766e" stroke-width="3" fill="none" stroke-linecap="round" stroke-linejoin="round" />
    <g>
      <line x1="48" y1="8" x2="48" y2="16" stroke="#d8b061" stroke-width="1.8" stroke-linecap="round" />
      <line x1="34" y1="14" x2="30" y2="22" stroke="#d8b061" stroke-width="1.8" stroke-linecap="round" />
      <line x1="62" y1="14" x2="66" y2="22" stroke="#d8b061" stroke-width="1.8" stroke-linecap="round" />
    </g>
    <g>
      <line x1="26" y1="38" x2="26" y2="60" stroke="#059669" stroke-width="1.9" stroke-linecap="round" />
      <line x1="20" y1="46" x2="32" y2="46" stroke="#059669" stroke-width="1.9" stroke-linecap="round" />
    </g>
    <g>
      <line x1="70" y1="38" x2="70" y2="60" stroke="#059669" stroke-width="1.9" stroke-linecap="round" />
      <line x1="64" y1="46" x2="76" y2="46" stroke="#059669" stroke-width="1.9" stroke-linecap="round" />
    </g>
    <path d="M44 18h8c1.6 0 3 1.4 3 3v13h11c1.6 0 3 1.4 3 3v4c0 1.6-1.4 3-3 3H55v28c0 2-1.6 3.8-3.6 3.8H44.6A3.7 3.7 0 0 1 41 72V44h-11c-1.6 0-3-1.4-3-3v-4c0-1.6 1.4-3 3-3h11V21c0-1.6 1.4-3 3-3Z" fill="#fdf8ef" stroke="#d8b061" stroke-width="1.2" stroke-linejoin="round" />
    <rect x="45.6" y="56" width="4.8" height="16" rx="2.2" fill="#d8b061" opacity="0.85" />
    <circle cx="48" cy="26" r="2.2" fill="#d8b061" />
    <circle cx="48" cy="70" r="1.7" fill="#d8b061" />
  </g>
</svg>
