<?xml version="1.0" encoding="UTF-8"?>
<svg xmlns="http://www.w3.org/2000/svg" xmlns:xlink="http://www.w3.org/1999/xlink"
     width="900" height="1100" viewBox="0 0 900 1100" role="img">
<title>Barber Cam Heritage Shield</title>

  <rect width="100%" height="100%" fill="#FFFFFF"/>
  <path d="M 198.0 286.0 Q 450.0 132.0 702.0 286.0 L 702.0 638.0 Q 450.0 968.0 198.0 638.0 Z" fill="#F8FAFC" stroke="#0B1320" stroke-width="16"/>
  <path d="M 238.0 326.0 L 662.0 616.0" stroke="#D12A2A" stroke-width="60" stroke-linecap="round" opacity="0.9"/>
  <path d="M 662.0 326.0 L 238.0 616.0" stroke="#D12A2A" stroke-width="60" stroke-linecap="round" opacity="0.9"/>
  <g transform="translate(450.0,572.0) scale(0.78)">
    
  <defs>
    <linearGradient id="hs_gBody" x1="0" y1="0" x2="0" y2="1">
      <stop offset="0%" stop-color="#121E33"/>
      <stop offset="100%" stop-color="#0B1320"/>
    </linearGradient>
  </defs>

  <g id="hs_camera">
    <rect x="-160.00" y="-105.00" width="320.00" height="210.00" rx="28.00" fill="url(#hs_gBody)"/>
    <circle cx="0.00" cy="0.00" r="92.00" fill="none" stroke="#FFFFFF" stroke-width="14.00"/>
    <circle cx="0.00" cy="0.00" r="72.00" fill="none" stroke="#FFFFFF" stroke-width="10.00"/>
    <circle cx="0.00" cy="0.00" r="26.00" fill="#FFFFFF" opacity="0.96"/>
    <circle cx="120.00" cy="-52.00" r="12.00" fill="#D12A2A" opacity="1.0"/>
    <g transform="translate(0.00,-136.00)">
      <rect x="-120.00" y="-18.00" width="240.00" height="22.00" rx="10.00" fill="#0B1320"/>
      <rect x="-10.00" y="-10.00" width="20.00" height="70.00" rx="8.00" fill="#0B1320"/>
      <circle cx="-88.00" cy="42.00" r="26.00" fill="none" stroke="#0B1320" stroke-width="10.00"/>
      <circle cx="88.00" cy="42.00" r="26.00" fill="none" stroke="#0B1320" stroke-width="10.00"/>
    </g>
  </g>

  </g>
  <text x="450.0" y="242.0" text-anchor="middle" font-family="Cinzel, Georgia, serif" font-weight="700" font-size="64" letter-spacing="2" fill="#0B1320">BARBER CAM</text>
  <text x="450.0" y="1045.0" text-anchor="middle" font-family="Montserrat, Arial, sans-serif" font-weight="600" font-size="30" letter-spacing="2" fill="#0B1320" opacity="0.9">STANDARDS • SAFETY • ACCOUNTABILITY</text>

</svg>