<?xml version="1.0" encoding="UTF-8"?>
<svg xmlns="http://www.w3.org/2000/svg" xmlns:xlink="http://www.w3.org/1999/xlink"
     width="1600" height="900" viewBox="0 0 1600 900" role="img">
<title>Barber Cam Hero Emblem (Animated)</title>

  <rect width="100%" height="100%" fill="#FFFFFF"/>
  
  <defs>
    <filter id="softShadow" x="-20%" y="-20%" width="140%" height="140%">
      <feDropShadow dx="0" dy="6" stdDeviation="8" flood-color="#0B1320" flood-opacity="0.18"/>
    </filter>
  </defs>

  <g filter="url(#softShadow)">
    <g id="scroll" transform-origin="800.0px 198.0px">
      <path d="M 217.6 135.0 C 189.9 135.0, 182.9 198.0, 217.6 261.0 L 1382.4 261.0 C 1417.1 261.0, 1417.1 198.0, 1382.4 135.0 Z" fill="#F3F5F7" stroke="#0B1320" stroke-width="6" stroke-linejoin="round"/>
      <path d="M 217.6 135.0 C 189.9 135.0, 182.9 198.0, 217.6 261.0 L 1382.4 261.0 C 1417.1 261.0, 1417.1 198.0, 1382.4 135.0 Z" fill="none" stroke="#D12A2A" stroke-width="2" stroke-dasharray="14 10" opacity="0.65">
        <animate attributeName="stroke-dashoffset" values="0;48" dur="2.4s" repeatCount="indefinite"/>
      </path>
      <animateTransform attributeName="transform" type="scale"
        values="0.92 1;1 1;0.92 1" dur="4.5s" repeatCount="indefinite"/>
    </g>

    <text x="800.0" y="212.0" text-anchor="middle"
      font-family="Cinzel, Georgia, serif" font-size="78"
      font-weight="700" letter-spacing="3" fill="#0B1320">BARBER SHOPPE</text>

    <text x="800.0" y="317.7" text-anchor="middle"
      font-family="Montserrat, Arial, sans-serif" font-size="37"
      font-weight="600" letter-spacing="2" fill="#0B1320" opacity="0.9">RECORD CLEAN • STORE SAFE • SHARE FAIR</text>
  </g>

  <g transform="translate(440.0,306.0)">
    
<title>Barber Cam Badge</title><desc>Circular Barber Cam badge with camera mark.</desc>

  <rect width="100%" height="100%" fill="#FFFFFF"/>
  <circle cx="360.0" cy="360.0" r="331.2" fill="none" stroke="#0B1320" stroke-width="22.40"/>
  <circle cx="360.0" cy="360.0" r="284.832" fill="none" stroke="#0B1320" stroke-width="8.00" opacity="0.9"/>
  <circle cx="360.0" cy="360.0" r="245.088" fill="none" stroke="#0B1320" stroke-width="3.20" opacity="0.5"/>
  
  <defs>
    <linearGradient id="b_gBody" x1="0" y1="0" x2="0" y2="1">
      <stop offset="0%" stop-color="#121E33"/>
      <stop offset="100%" stop-color="#0B1320"/>
    </linearGradient>
  </defs>

  <g id="b_camera">
    <rect x="212.80" y="283.40" width="294.40" height="193.20" rx="25.76" fill="url(#b_gBody)"/>
    <circle cx="360.00" cy="380.00" r="84.64" fill="none" stroke="#FFFFFF" stroke-width="12.88"/>
    <circle cx="360.00" cy="380.00" r="66.24" fill="none" stroke="#FFFFFF" stroke-width="9.20"/>
    <circle cx="360.00" cy="380.00" r="23.92" fill="#FFFFFF" opacity="0.96"/>
    <circle cx="470.40" cy="332.16" r="11.04" fill="#D12A2A" opacity="1.0"/>
    <g transform="translate(360.00,254.88)">
      <rect x="-110.40" y="-16.56" width="220.80" height="20.24" rx="9.20" fill="#0B1320"/>
      <rect x="-9.20" y="-9.20" width="18.40" height="64.40" rx="7.36" fill="#0B1320"/>
      <circle cx="-80.96" cy="38.64" r="23.92" fill="none" stroke="#0B1320" stroke-width="9.20"/>
      <circle cx="80.96" cy="38.64" r="23.92" fill="none" stroke="#0B1320" stroke-width="9.20"/>
    </g>
  </g>

  


  </g>
  <text x="800.0" y="837.0" text-anchor="middle"
    font-family="Montserrat, Arial, sans-serif" font-size="34" font-weight="600" letter-spacing="2"
    fill="#0B1320" opacity="0.92">CITIZEN ACCOUNTABILITY • BWC TO PROTECT &amp; SERVE</text>

</svg>